<?xml version="1.0" encoding="iso-8859-1"?>
<!-- Uploaded to: SVG Repo, www.svgrepo.com, Generator: SVG Repo Mixer Tools -->
<svg fill="#000000" height="800px" width="800px" version="1.1" id="Capa_1" xmlns="http://www.w3.org/2000/svg" xmlns:xlink="http://www.w3.org/1999/xlink" 
	 viewBox="0 0 375.859 375.859" xml:space="preserve">
<g>
	<path d="M25.739,214.243c4.3,0,7.787-3.332,7.787-8.32c0-6.887-7.787-11.838-7.787-11.838s-7.786,4.951-7.786,11.838
		C17.953,210.911,21.44,214.243,25.739,214.243z"/>
	<path d="M358.727,234.114c-1.037-10.342-4.295-17.881-8.607-17.881c-4.311,0-7.569,7.539-8.606,17.881h-17.133
		c0,17.701,8.293,32.554,19.486,36.654c-1.031,9.712-9.27,17.304-19.251,17.304c-10.678,0-19.365-8.686-19.365-19.362v-65.178
		c0-17.447-14.194-31.642-31.642-31.642c-17.449,0-31.645,14.194-31.645,31.642v8.828h-3.787c-0.026,0-0.053-0.004-0.078-0.004
		c-0.026,0-0.052,0.004-0.078,0.004H137.837c-0.026,0-0.052-0.004-0.077-0.004c-0.025,0-0.051,0.004-0.077,0.004h-3.789v-8.828
		c0-17.447-14.195-31.642-31.644-31.642c-17.448,0-31.643,14.194-31.643,31.642v65.178c0,10.677-8.688,19.362-19.365,19.362
		c-9.98,0-18.219-7.592-19.25-17.304c11.193-4.101,19.486-18.953,19.486-36.654H34.346c-1.037-10.342-4.295-17.881-8.606-17.881
		c-4.312,0-7.569,7.539-8.607,17.881H0c0,17.801,8.391,32.718,19.679,36.72c1.098,16.46,14.829,29.518,31.563,29.518
		c17.449,0,31.645-14.194,31.645-31.642v-65.178c0-10.677,8.687-19.362,19.363-19.362c10.678,0,19.364,8.686,19.364,19.362v8.828
		h-13.956c-3.792,0-6.865,3.073-6.865,6.865c0,48.048,39.088,87.137,87.137,87.137c48.048,0,87.137-39.089,87.137-87.137
		c0-3.792-3.073-6.865-6.865-6.865h-13.957v-8.828c0-10.677,8.688-19.362,19.365-19.362c10.677,0,19.362,8.686,19.362,19.362v65.178
		c0,17.447,14.195,31.642,31.645,31.642c16.733,0,30.467-13.058,31.565-29.518c11.287-4.002,19.678-18.919,19.678-36.72H358.727z"/>
	<path d="M350.12,214.243c4.3,0,7.786-3.332,7.786-8.32c0-6.887-7.786-11.838-7.786-11.838s-7.787,4.951-7.787,11.838
		C342.333,210.911,345.82,214.243,350.12,214.243z"/>
	<path d="M170.319,134.316c-3.54-1.359-7.51,0.41-8.87,3.95c-1.359,3.54,0.41,7.511,3.95,8.87c0.81,0.311,1.64,0.45,2.46,0.45
		c2.76,0,5.36-1.67,6.41-4.4C175.629,139.637,173.859,135.667,170.319,134.316z"/>
	<path d="M145.34,199.467c0.8,0.311,1.63,0.46,2.449,0.46c2.761,0,5.37-1.68,6.41-4.41c1.36-3.54-0.41-7.51-3.951-8.87
		c-3.539-1.359-7.509,0.41-8.868,3.95C140.029,194.137,141.789,198.107,145.34,199.467z"/>
	<path d="M155.369,173.307c0.811,0.3,1.641,0.45,2.45,0.45c2.76,0,5.37-1.68,6.42-4.41c1.36-3.54-0.411-7.51-3.95-8.87
		c-3.55-1.359-7.52,0.41-8.869,3.96C150.06,167.977,151.828,171.937,155.369,173.307z"/>
	<path d="M177.89,121.427c2.76,0,5.37-1.68,6.41-4.41c1.359-3.54-0.41-7.51-3.95-8.87c-3.54-1.359-7.51,0.41-8.871,3.95
		c-1.35,3.54,0.421,7.51,3.961,8.87C176.248,121.277,177.079,121.427,177.89,121.427z"/>
	<path d="M200.42,120.967c3.539-1.36,5.31-5.33,3.949-8.87c-1.35-3.54-5.33-5.31-8.859-3.95c-3.551,1.36-5.311,5.33-3.96,8.87
		c1.05,2.73,3.649,4.41,6.409,4.41C198.779,121.427,199.609,121.277,200.42,120.967z"/>
	<path d="M211.619,169.347c1.051,2.73,3.65,4.41,6.41,4.41c0.82,0,1.65-0.15,2.46-0.46c3.54-1.35,5.311-5.32,3.95-8.86
		c-1.36-3.54-5.33-5.31-8.87-3.96C212.029,161.837,210.26,165.807,211.619,169.347z"/>
	<path d="M221.659,195.517c1.04,2.73,3.65,4.41,6.41,4.41c0.811,0,1.64-0.149,2.45-0.46c3.54-1.36,5.309-5.33,3.95-8.87
		c-1.35-3.54-5.32-5.31-8.86-3.95C222.069,188.007,220.3,191.977,221.659,195.517z"/>
	<path d="M207.998,147.587c0.821,0,1.651-0.14,2.451-0.45c3.549-1.359,5.32-5.33,3.96-8.87c-1.359-3.54-5.33-5.309-8.87-3.96
		c-3.541,1.36-5.31,5.33-3.96,8.87C202.629,145.917,205.239,147.587,207.998,147.587z"/>
	<path d="M187.93,187.146c-3.79,0-6.86,3.07-6.86,6.86c0,3.79,3.07,6.87,6.86,6.87c3.79,0,6.859-3.08,6.859-6.87
		C194.789,190.217,191.72,187.146,187.93,187.146z"/>
	<path d="M187.93,134.337c-3.79,0-6.86,3.07-6.86,6.86c0,3.79,3.07,6.869,6.86,6.869c3.79,0,6.859-3.079,6.859-6.869
		C194.789,137.407,191.72,134.337,187.93,134.337z"/>
	<path d="M187.93,160.737c-3.79,0-6.86,3.079-6.86,6.869c0,3.79,3.07,6.86,6.86,6.86c3.79,0,6.859-3.07,6.859-6.86
		C194.789,163.816,191.72,160.737,187.93,160.737z"/>
	<path d="M187.93,107.282c15.964,0,28.908-16.916,28.908-37.785h-57.816C159.021,90.366,171.965,107.282,187.93,107.282z"/>
</g>
</svg>