<?xml version="1.0" encoding="iso-8859-1"?>
<!-- Uploaded to: SVG Repo, www.svgrepo.com, Generator: SVG Repo Mixer Tools -->
<svg fill="#000000" height="800px" width="800px" version="1.1" id="Layer_1" xmlns="http://www.w3.org/2000/svg" xmlns:xlink="http://www.w3.org/1999/xlink" 
	 viewBox="0 0 512 512" xml:space="preserve">
<g>
	<g>
		<path d="M395.215,162.967h-121.25v-67.48c0-7.087-5.745-12.079-12.832-12.079h-36.571c-7.087,0-13.474,4.992-13.474,12.079v67.48
			h-15.398v-35.93h-62.877v35.93h-16.027c-7.087,0-12.203,4.643-12.203,11.73v323.941c0,7.087,5.116,13.362,12.203,13.362h278.43
			c7.087,0,12.203-6.275,12.203-13.362V174.697C407.419,167.61,402.302,162.967,395.215,162.967z M217.504,431.562l-15.844,11.079
			c-0.662,0.464-1.935,0.468-2.6,0.001l-16.203-11.125V327.218h34.647V431.562z M272.683,431.516h-0.001l-15.705,11.133
			c-0.663,0.466-1.363,0.466-2.025,0l-15.632-11.122V327.218h33.363V431.516z M327.86,431.516L327.86,431.516l-15.517,11.134
			c-0.662,0.463-1.522,0.465-2.184-0.001l-15.663-11.03V327.218h33.363V431.516z"/>
	</g>
</g>
<g>
	<g>
		<path d="M182.857,0h-36.571c-7.087,0-13.474,4.992-13.474,12.079v76.463h62.877V12.079C195.689,4.992,189.944,0,182.857,0z"/>
	</g>
</g>
</svg>